<?xml version="1.0" encoding="UTF-8"?>
<svg id="Capa_1" data-name="Capa 1" xmlns="http://www.w3.org/2000/svg" viewBox="0 0 292.82 198.65">
  <defs>
    <style>
      .cls-1 {
        fill: #f6b8c9;
      }

      .cls-2 {
        fill: none;
        stroke: #202121;
        stroke-miterlimit: 10;
        stroke-width: .75px;
      }
    </style>
  </defs>
  <ellipse class="cls-1" cx="148.99" cy="99.33" rx="140.67" ry="96.69" transform="translate(-18.28 35.42) rotate(-12.78)"/>
  <path class="cls-2" d="M178.54,189.82c-25.95-.64-53.82-5.79-80.76-15.81C21.75,145.76-18.11,89.5,8.75,48.34,20.83,29.83,44.34,17.53,73.47,12.17"/>
  <path class="cls-2" d="M91.79,9.77c31.84-2.58,68.32,2.22,103.25,15.2,76.03,28.25,115.89,84.52,89.03,125.68-15.15,23.22-48.3,36.67-87.97,38.91"/>
  <path d="M187.11,196.38l-.12-1.86c-.04-.46-.09-.9-.18-1.36-.26-1.39-.78-2.26-2.1-2.84-.49-.22-.99-.37-1.52-.51-.72-.18-1.43-.33-2.16-.48l2.21-.15c.55-.04,1.07-.14,1.59-.28,1.24-.34,1.9-1.01,2.37-2.18.19-.46.32-.93.45-1.41l.45-2.04.14,2.12c.03.44.1.86.19,1.3.29,1.33.83,2.13,2.1,2.68.51.22,1.03.38,1.57.52l2.08.46-2.14.14c-.56.04-1.09.13-1.63.28-1.26.33-1.93,1-2.41,2.19-.18.45-.32.91-.44,1.39l-.45,2.05Z"/>
  <path d="M82.74,17.14l-.22-1.85c-.06-.46-.14-.9-.25-1.35-.34-1.37-.9-2.21-2.25-2.72-.51-.19-1.01-.32-1.55-.42-.73-.14-1.45-.25-2.18-.36l2.2-.27c.54-.07,1.06-.19,1.57-.37,1.22-.41,1.84-1.11,2.25-2.31.16-.47.27-.94.37-1.44l.34-2.07.25,2.11c.05.44.15.86.26,1.28.36,1.31.95,2.08,2.24,2.56.52.19,1.05.32,1.6.43l2.1.34-2.13.26c-.56.07-1.08.19-1.61.36-1.24.4-1.87,1.11-2.29,2.32-.16.46-.27.92-.36,1.41l-.34,2.07Z"/>
</svg>
