<?xml version="1.0" encoding="UTF-8"?>
<svg id="Capa_1" data-name="Capa 1" xmlns="http://www.w3.org/2000/svg" viewBox="0 0 727.91 482.25">
  <defs>
    <style>
      .cls-1 {
        fill: #f6b8c9;
      }

      .cls-2 {
        fill: none;
        stroke: #1e1e1c;
        stroke-miterlimit: 10;
      }
    </style>
  </defs>
  <rect class="cls-1" x="36.66" width="691.25" height="460.56" rx="83.41" ry="83.41"/>
  <g>
    <path class="cls-2" d="M9.61,104.61c0-46.07,37.35-83.41,83.41-83.41h524.42c46.07,0,83.41,37.35,83.41,83.41v214.81"/>
    <path class="cls-2" d="M700.86,343.56v37.13c0,55.82-37.35,101.06-83.41,101.06H93.03c-46.07,0-83.41-45.25-83.41-101.06v-250.24"/>
    <path d="M701.11,341.26l-.45-2.68c-.13-.67-.26-1.3-.46-1.94-.59-1.97-1.47-3.16-3.47-3.81-.75-.24-1.5-.39-2.28-.51-1.07-.16-2.13-.27-3.2-.37l3.19-.55c.79-.13,1.53-.35,2.27-.64,1.75-.67,2.6-1.74,3.12-3.51.2-.7.33-1.39.44-2.12l.36-3.03.51,3.05c.11.64.27,1.24.47,1.85.61,1.89,1.52,2.96,3.44,3.58.77.25,1.55.4,2.35.52l3.08.36-3.09.52c-.8.14-1.56.35-2.32.64-1.77.67-2.65,1.74-3.17,3.54-.2.69-.32,1.36-.43,2.07l-.35,3.04Z"/>
    <path d="M9.86,127.11l-.45-2.68c-.13-.67-.26-1.3-.46-1.94-.59-1.97-1.47-3.16-3.47-3.81-.75-.24-1.5-.39-2.28-.51-1.07-.16-2.13-.27-3.2-.37l3.19-.55c.79-.13,1.53-.35,2.27-.64,1.75-.67,2.6-1.74,3.12-3.51.2-.7.33-1.39.44-2.12l.36-3.03.51,3.05c.11.64.27,1.24.47,1.85.61,1.89,1.52,2.96,3.44,3.58.77.25,1.55.4,2.35.52l3.08.36-3.09.52c-.8.14-1.56.35-2.32.64-1.77.67-2.65,1.74-3.17,3.54-.2.69-.32,1.36-.43,2.07l-.35,3.04Z"/>
  </g>
</svg>